<?xml version="1.0" encoding="UTF-8"?><svg id="Layer_2" xmlns="http://www.w3.org/2000/svg" xmlns:xlink="http://www.w3.org/1999/xlink" viewBox="0 0 487.51 246.94"><defs><style>.cls-1{fill:#203952;}.cls-2{fill:url(#New_Gradient_Swatch_1);}.cls-3{fill:url(#New_Gradient_Swatch_1-2);}</style><linearGradient id="New_Gradient_Swatch_1" x1="-153.64" y1="-640.85" x2="121.72" y2="-477.57" gradientTransform="translate(153.94 -402.86) rotate(-180)" gradientUnits="userSpaceOnUse"><stop offset="0" stop-color="#fbf0ca"/><stop offset=".47" stop-color="#f9a35b"/><stop offset=".76" stop-color="#556776"/><stop offset=".89" stop-color="#263e58"/><stop offset="1" stop-color="#1a3047"/></linearGradient><linearGradient id="New_Gradient_Swatch_1-2" x1="508.7" y1="194.86" x2="225.65" y2="45.32" gradientTransform="matrix(1, 0, 0, 1, 0, 0)" xlink:href="#New_Gradient_Swatch_1"/></defs><g id="Layer_1-2"><path class="cls-2" d="M120.45,246.94h240.9c-66.52,0-115.78-54.88-120.45-120.45C236.01,61.94,186.97,6.04,120.45,6.04S0,59.97,0,126.49s53.93,120.45,120.45,120.45Zm0-167.29c25.87,0,46.84,20.97,46.84,46.84s-20.97,46.84-46.84,46.84-46.84-20.97-46.84-46.84,20.97-46.84,46.84-46.84Z"/><circle class="cls-1" cx="120.45" cy="126.49" r="40.5"/><path class="cls-3" d="M367.06,0H126.16c66.52,0,115.78,54.88,120.45,120.45,4.89,64.55,53.93,120.45,120.45,120.45s120.45-53.93,120.45-120.45S433.58,0,367.06,0Zm0,167.29c-25.87,0-46.84-20.97-46.84-46.84s20.97-46.84,46.84-46.84,46.84,20.97,46.84,46.84-20.97,46.84-46.84,46.84Z"/></g></svg>